<?xml version="1.0" encoding="UTF-8" standalone="no"?>
<svg
   xmlns:dc="http://purl.org/dc/elements/1.1/"
   xmlns:cc="http://creativecommons.org/ns#"
   xmlns:rdf="http://www.w3.org/1999/02/22-rdf-syntax-ns#"
   xmlns:svg="http://www.w3.org/2000/svg"
   xmlns="http://www.w3.org/2000/svg"
   xml:space="preserve"
   style="background: #FF6700; fill: #FFFFFF; border-radius: 50%"
   viewBox="0 0 511.999 511.999"
   y="0px"
   x="0px"
   id="Layer_1"
   version="1.1"><metadata
     id="metadata67"><rdf:RDF><cc:Work
         rdf:about=""><dc:format>image/svg+xml</dc:format><dc:type
           rdf:resource="http://purl.org/dc/dcmitype/StillImage" /></cc:Work></rdf:RDF></metadata><defs
     id="defs65" /><g
     id="g6"><g
       id="g4"><path
         id="path2"
         d="M318.067,6.156C314.124,2.216,308.779,0,303.204,0s-10.921,2.216-14.864,6.156L45.792,248.704    c-3.942,3.942-6.156,9.288-6.156,14.863c-0.001,5.576,2.214,10.922,6.156,14.863l23.736,23.738l208.742-63.531l63.531-208.744    L318.067,6.156z" /></g></g><g
     id="g12"><g
       id="g10"><path
         id="path8"
         d="M495.932,184.025L375.495,63.583l-60.267,198.019c-0.022,0.071-0.049,0.142-0.073,0.213    c-0.07,0.224-0.146,0.444-0.226,0.667c-0.081,0.227-0.161,0.451-0.249,0.674c-0.069,0.174-0.14,0.349-0.212,0.521    c-0.116,0.27-0.234,0.537-0.359,0.8c-0.059,0.126-0.121,0.254-0.184,0.378c-0.151,0.304-0.311,0.603-0.475,0.898    c-0.05,0.09-0.099,0.179-0.151,0.269c-0.186,0.321-0.381,0.639-0.584,0.949c-0.043,0.066-0.085,0.132-0.129,0.198    c-0.22,0.329-0.45,0.652-0.688,0.966c-0.035,0.048-0.07,0.098-0.105,0.146c-0.261,0.336-0.528,0.666-0.804,0.984    c-0.024,0.027-0.043,0.055-0.066,0.08c-0.299,0.341-0.608,0.673-0.925,0.991c-0.006,0.004-0.008,0.008-0.013,0.013    s-0.008,0.008-0.013,0.013c-0.318,0.318-0.65,0.626-0.991,0.925c-0.027,0.024-0.055,0.045-0.081,0.067    c-0.318,0.276-0.645,0.544-0.981,0.803c-0.049,0.038-0.101,0.073-0.15,0.112c-0.313,0.234-0.631,0.462-0.96,0.681    c-0.067,0.045-0.139,0.09-0.206,0.135c-0.307,0.199-0.618,0.392-0.936,0.577c-0.095,0.056-0.192,0.108-0.287,0.163    c-0.287,0.16-0.58,0.315-0.876,0.464c-0.135,0.066-0.268,0.13-0.402,0.195c-0.255,0.119-0.511,0.234-0.775,0.346    c-0.181,0.077-0.363,0.151-0.545,0.223c-0.214,0.084-0.432,0.164-0.649,0.24c-0.228,0.081-0.457,0.16-0.689,0.234    c-0.069,0.021-0.136,0.048-0.205,0.069L103.22,335.859l120.441,120.438c8.208,8.208,21.518,8.209,29.727,0L495.93,213.752    C504.141,205.543,504.141,192.234,495.932,184.025z" /></g></g><g
     id="g18"><g
       id="g16"><path
         id="path14"
         d="M90.136,382.229l-64.16,64.158c-8.208,8.208-8.209,21.519-0.001,29.727c8.209,8.209,21.519,8.209,29.729,0l64.16-64.159    L90.136,382.229z" /></g></g><g
     id="g24"><g
       id="g22"><path
         id="path20"
         d="M30.68,322.773l-14.613,14.613c-8.206,8.208-8.209,21.518-0.001,29.726c8.209,8.209,21.521,8.209,29.729,0.001    L60.408,352.5L30.68,322.773z" /></g></g><g
     id="g30"><g
       id="g28"><path
         id="path26"
         d="M149.59,441.683l-34.43,34.432c-8.208,8.209-8.209,21.518,0,29.727c8.208,8.209,21.518,8.208,29.727-0.001l34.43-34.43    L149.59,441.683z" /></g></g><g
     id="g32" /><g
     id="g34" /><g
     id="g36" /><g
     id="g38" /><g
     id="g40" /><g
     id="g42" /><g
     id="g44" /><g
     id="g46" /><g
     id="g48" /><g
     id="g50" /><g
     id="g52" /><g
     id="g54" /><g
     id="g56" /><g
     id="g58" /><g
     id="g60" /></svg>