<?xml version="1.0" encoding="UTF-8"?>
<svg width="452px" height="55px" viewBox="0 0 452 55" version="1.1" xmlns="http://www.w3.org/2000/svg" xmlns:xlink="http://www.w3.org/1999/xlink">
    <!-- Generator: Sketch 43.2 (39069) - http://www.bohemiancoding.com/sketch -->
    <title>globuzzer-big logo</title>
    <desc>Created with Sketch.</desc>
    <defs></defs>
    <g id="home" stroke="none" stroke-width="1" fill="#E62821" fill-rule="evenodd">
        <g id="Desktop" transform="translate(-286.000000, -256.000000)" fill-rule="nonzero" fill="#E62821">
            <g id="globuzzer-big-logo" transform="translate(286.000000, 256.000000)">
                <path d="M32.8766897,26.4939024 L32.8766897,33.9390244 L41.1965051,33.9390244 L41.1965051,40.5121951 C40.2571711,41.5182927 35.0237389,46.5487805 27.3077811,46.5487805 C16.706726,46.5487805 9.0578635,38.3658537 9.0578635,27.097561 C9.0578635,15.8292683 16.7738213,7.98170732 27.7103528,7.98170732 C36.0972634,7.98170732 41.6661721,12.8109756 41.7332674,12.8109756 L42.2700297,13.2804878 L46.5641279,6.90853659 L46.2286515,6.57317073 C45.9602704,6.30487805 39.519123,0.268292683 27.1735905,0.268292683 C11.9429608,0.268292683 0.469666996,11.8719512 0.469666996,27.2317073 C0.469666996,42.7256098 11.5403891,54.3963415 26.2342565,54.3963415 C34.2185955,54.3963415 39.3849324,50.7073171 41.4648863,48.8963415 L41.4648863,49.7012195 L41.4648863,53.5243902 L48.9795582,53.5243902 L48.9795582,26.5609756 L32.8766897,26.5609756 L32.8766897,26.4939024 Z" id="Shape"></path>
                <polygon id="Shape" points="71.053907 45.945122 71.053907 1.00609756 62.6669964 1.00609756 62.6669964 53.3902439 93.9333993 53.3902439 93.9333993 45.945122"></polygon>
                <path d="M194.710518,25.6219512 C198.333663,23.3414634 200.413617,19.3170732 200.413617,14.6219512 C200.413617,6.30487805 194.375041,0.93902439 184.914606,0.93902439 L166.396307,0.93902439 L166.396307,53.3231707 L185.317178,53.3231707 C195.716947,53.3231707 202.35938,47.3536585 202.35938,38.1646341 C202.493571,32.3963415 199.474283,27.5670732 194.710518,25.6219512 Z M185.786845,45.945122 L174.850313,45.945122 L174.850313,29.7134146 L185.719749,29.7134146 C190.751896,29.7134146 193.97247,32.9329268 193.97247,37.8963415 C193.97247,42.8597561 190.818991,45.945122 185.786845,45.945122 Z M184.981701,22.5365854 L174.850313,22.5365854 L174.850313,8.45121951 L184.847511,8.45121951 C189.2758,8.45121951 191.959611,11.0670732 191.959611,15.3597561 C191.892516,19.652439 189.141609,22.5365854 184.981701,22.5365854 Z" id="Shape"></path>
                <path d="M248.453841,1.00609756 L248.453841,34.5426829 C248.453841,41.9878049 243.824266,46.4817073 235.974118,46.4817073 C228.25816,46.4817073 223.695681,42.054878 223.695681,34.6768293 L223.695681,1.00609756 L215.30877,1.00609756 L215.30877,34.6768293 C215.30877,46.4146341 223.628586,54.2621951 236.041213,54.2621951 C248.453841,54.2621951 256.773656,46.4146341 256.773656,34.6768293 L256.773656,1.00609756 L248.453841,1.00609756 Z" id="Shape"></path>
                <path d="M281.867293,45.945122 C280.793769,45.945122 279.988625,45.945122 279.317672,46.0121951 C279.988625,45.2073171 281.06215,43.9329268 282.20277,42.2560976 L306.96093,6.50609756 L306.96093,1.00609756 L269.790142,1.00609756 L269.790142,8.45121951 L293.608968,8.45121951 C294.615397,8.45121951 295.487636,8.38414634 296.091494,8.38414634 C295.420541,9.18902439 294.347016,10.5304878 293.206396,12.1402439 L268.448236,47.8231707 L268.448236,53.3902439 L307.229311,53.3902439 L307.229311,45.945122 L281.867293,45.945122 Z" id="Shape"></path>
                <path d="M329.504946,45.945122 C328.431421,45.945122 327.626278,45.945122 326.955325,46.0121951 C327.626278,45.2073171 328.699802,43.9329268 329.840422,42.2560976 L354.598582,6.50609756 L354.598582,1.00609756 L317.427794,1.00609756 L317.427794,8.45121951 L341.246621,8.45121951 C342.25305,8.45121951 343.125288,8.38414634 343.729146,8.38414634 C343.058193,9.18902439 341.984669,10.5304878 340.844049,12.1402439 L316.085889,47.8231707 L316.085889,53.3902439 L354.866963,53.3902439 L354.866963,45.945122 L329.504946,45.945122 Z" id="Shape"></path>
                <polygon id="Shape" points="376.136169 45.945122 376.136169 30.7195122 394.453182 30.7195122 394.453182 23.2743902 376.136169 23.2743902 376.136169 8.45121951 398.680185 8.45121951 398.680185 1.00609756 367.749258 1.00609756 367.749258 53.3902439 399.8879 53.3902439 399.8879 45.945122"></polygon>
                <path d="M440.212166,32.6646341 C439.742499,31.7926829 439.339927,31.1890244 439.071546,30.8536585 C444.506264,28.7743902 447.995219,23.2743902 447.995219,16.7012195 C447.995219,9.92682927 444.506264,4.3597561 439.004451,2.2804878 C436.991592,1.54268293 434.643258,1.07317073 429.208539,1.07317073 L412.97148,1.07317073 L412.97148,53.4573171 L421.358391,53.4573171 L421.358391,33.0670732 L431.355589,33.0670732 L442.157929,53.4573171 L451.68546,53.4573171 L440.212166,32.6646341 Z M421.291296,8.45121951 L428.940158,8.45121951 C432.831685,8.45121951 434.441972,8.85365854 435.649687,9.52439024 C438.132212,10.8658537 439.407023,13.4146341 439.407023,16.902439 C439.407023,22.2682927 436.186449,25.554878 430.953017,25.554878 L421.291296,25.554878 L421.291296,8.45121951 Z" id="Shape"></path>
                <path d="M145.060007,19.3170732 L145.529674,19.652439 L145.999341,19.652439 L145.999341,18.7804878 L147.408342,18.6463415 L148.750247,19.652439 L150.897296,19.652439 L151.031487,19.5182927 C150.830201,18.7804878 150.56182,18.0426829 150.293439,17.3719512 L148.884438,17.3719512 L148.14639,16.5670732 L148.012199,15.2926829 L147.274151,15.695122 L146.871579,17.2378049 L145.798055,16.097561 L145.730959,15.0243902 L144.72453,14.152439 L144.321958,13.75 L143.181339,13.75 L143.58391,14.8231707 L144.992911,15.6280488 L145.261292,15.8963415 L144.925816,16.097561 L144.925816,16.902439 L144.254863,17.1707317 L143.651006,17.0365854 L143.315529,16.5 L144.254863,16.5670732 L144.523244,16.2317073 L142.376195,14.8231707 L142.242005,14.2195122 L141.369766,15.0243902 L140.497527,14.8231707 L139.155621,16.5670732 L138.88724,17.2378049 L138.015002,17.304878 L136.740191,17.304878 L136.002143,16.9695122 L135.800857,15.4939024 L136.069238,14.7560976 L137.344049,14.4878049 L138.75305,14.7560976 L138.954336,13.9512195 L138.350478,13.8170732 L138.551764,12.6097561 L139.960765,12.4085366 L140.967194,11 L141.973623,10.7987805 L142.912957,10.9329268 L143.248434,10.9329268 L143.047148,9.65853659 L141.906528,10.1280488 L141.503956,9.18902439 L140.833004,9.12195122 L140.698813,8.45121951 L141.235575,7.84756098 L142.510386,7.37804878 L142.845862,6.77439024 C138.082097,2.54878049 131.77514,-2.84217094e-14 124.931421,-2.84217094e-14 C118.959941,-2.84217094e-14 113.458127,1.94512195 108.962743,5.16463415 L110.304649,5.16463415 L110.908506,5.5 L112.049126,5.76829268 L112.116222,6.23780488 L113.927794,6.30487805 L113.659413,5.70121951 L112.049126,5.63414634 L112.451698,5.29878049 L112.317507,4.89634146 L110.841411,4.89634146 L112.451698,3.68902439 L113.99489,3.68902439 L114.732938,4.69512195 L115.940653,4.76219512 L116.678701,4.09146341 L117.215463,4.3597561 L116.209034,5.29878049 L114.934224,5.29878049 C115.001319,5.29878049 115.068414,6.23780488 115.068414,6.23780488 L116.745796,6.17073171 L116.947082,5.70121951 L118.087702,5.63414634 L118.221893,4.96341463 L117.55094,4.82926829 L117.752226,4.22560976 L118.288988,4.09146341 L120.100561,4.15853659 L119.094131,5.0304878 L119.228322,5.70121951 L120.234751,5.83536585 L120.167656,4.56097561 L121.174085,4.02439024 L122.918562,3.82317073 L125.468183,4.96341463 L125.468183,5.90243902 L126.273327,6.10365854 L125.870755,6.84146341 L124.79723,6.84146341 L124.461754,7.71341463 L121.845038,7.1097561 L123.924992,6.03658537 L123.119848,5.36585366 L121.308276,5.56707317 L121.174085,5.70121951 L121.174085,5.70121951 L121.174085,5.76829268 L120.637323,6.30487805 L119.765084,6.37195122 L119.832179,6.77439024 L120.100561,6.90853659 L120.100561,7.04268293 L119.429608,7.1097561 L119.362512,7.51219512 L118.69156,7.57926829 L118.557369,6.77439024 L117.416749,7.37804878 L115.001319,8.78658537 L115.2697,9.79268293 L115.940653,10.2621951 L117.282559,10.4634146 L117.282559,12.0060976 L117.886416,11.8719512 L118.490274,10.6646341 L119.899275,10.195122 L119.899275,8.38414634 L120.704418,7.7804878 L122.650181,8.25 L122.515991,9.45731707 L123.052753,9.45731707 L124.461754,8.78658537 L124.528849,10.3963415 L125.535279,11 L125.468183,11.9390244 L124.461754,12.2743902 L124.528849,12.6097561 L125.736564,13.1463415 L125.736564,13.8170732 L125.401088,13.8170732 L125.401088,13.8170732 L123.924992,13.347561 L123.857896,12.8780488 L123.857896,12.8780488 L124.327563,12.5426829 L124.327563,12.0731707 L123.857896,11.9390244 L123.723706,12.3414634 L122.918562,12.4756098 L122.851467,12.4756098 L122.851467,12.5426829 L122.583086,12.6097561 L122.314705,12.1402439 L122.046324,12.0060976 L121.442466,12.0060976 L121.174085,12.2073171 L121.174085,12.6768293 L121.710847,12.8780488 L122.180514,12.945122 L122.046324,13.0121951 L121.576657,13.5487805 L121.375371,13.2804878 L120.905704,13.1463415 L119.697989,14.2865854 L119.832179,14.4207317 L118.087702,15.4268293 L116.41032,17.1707317 L116.276129,17.9756098 L114.598747,19.0487805 L113.793604,19.8536585 L113.860699,21.5304878 L112.720079,20.9939024 L112.720079,19.9878049 L109.499505,19.9878049 L107.822123,20.7926829 L107.084075,22.1341463 L106.815694,23.2073171 L107.285361,24.2134146 L108.560171,24.347561 L110.640125,22.9390244 L110.841411,23.6097561 L110.237554,24.8170732 L111.84784,25.0853659 L111.982031,27.5 L114.12908,27.8353659 L115.538081,26.2256098 L117.215463,26.5609756 L117.819321,27.3658537 L119.429608,27.2987805 L119.496703,26.8292683 L120.368942,27.2317073 L121.375371,28.7743902 L123.119848,28.7743902 L123.723706,29.847561 L123.790801,31.1890244 L125.669469,31.9268293 L128.084899,31.9268293 L128.755852,33.0670732 L129.829377,33.402439 L129.628091,34.3414634 L128.487471,35.8170732 L128.151995,39.1036585 L127.07847,39.9085366 L125.535279,39.8414634 L124.998516,40.7134146 L125.401088,42.3902439 L123.723706,44.5365854 L123.186944,45.5426829 L121.576657,46.347561 L120.503132,46.4817073 L120.436037,46.9512195 L121.174085,47.152439 L121.10699,47.6219512 L120.436037,48.2926829 L120.838609,48.8292683 L121.643752,48.8292683 L121.576657,49.4329268 L121.375371,50.0365854 L121.308276,50.5060976 L122.515991,51.5121951 L122.3818,52.0487805 L120.771513,52.0487805 L119.161227,50.6402439 L117.886416,48.4268293 L118.087702,46.2804878 L117.148368,45.0060976 L117.55094,42.8597561 L117.014177,42.7256098 L117.014177,38.097561 C117.014177,38.097561 115.403891,36.8902439 115.336795,36.8902439 C115.2697,36.8902439 114.531652,36.6890244 114.531652,36.6890244 L114.397461,35.8170732 L112.317507,33.2682927 L112.518793,32.3292683 L112.585889,30.7865854 L113.99489,29.7804878 L113.793604,28.1036585 L111.71365,27.9695122 L110.103363,26.0914634 L108.962743,25.7560976 L108.224695,25.6219512 L108.29179,24.9512195 L107.352456,24.8170732 L107.352456,25.2195122 L105.004121,24.6158537 L104.064787,23.1402439 L104.467359,22.402439 L102.991263,20.1890244 L102.722882,18.5792683 L102.119024,18.5792683 L102.32031,20.1219512 L103.326739,21.7317073 L103.192549,22.3353659 L102.32031,22.2012195 L101.246785,20.3231707 L101.246785,18.1768293 L100.106166,17.6402439 L100.106166,16.097561 C98.6971645,19.3841463 97.9591164,22.9390244 97.9591164,26.695122 C97.9591164,41.652439 110.103363,53.7926829 125.065612,53.7926829 C133.519618,53.7926829 141.101385,49.902439 146.133531,43.7317073 L145.261292,43.7317073 L145.261292,41.9207317 L144.254863,40.5121951 L144.254863,38.902439 L143.44972,38.097561 L143.382624,37.2256098 L144.389054,35.2804878 L142.510386,31.9268293 L142.711672,29.6463415 L140.967194,29.445122 L140.363337,28.8414634 L139.222717,28.8414634 L138.618859,29.3780488 L136.606001,29.3780488 L136.538905,29.5792683 L135.398286,29.5792683 L132.781569,26.6280488 L132.781569,24.347561 L133.184141,24.2134146 L133.318332,23.3414634 L132.714474,23.3414634 L132.446093,22.402439 L135.465381,20.2560976 L135.465381,18.7134146 L136.941477,17.9085366 L137.545335,17.9756098 L138.75305,17.9756098 L139.692384,17.4390244 L142.711672,17.1707317 L142.711672,18.7134146 L145.060007,19.3170732 Z M137.411144,9.65853659 L137.679525,9.25609756 L138.551764,9.05487805 L138.75305,10.1280488 L139.222717,10.8658537 L139.558193,11.2012195 L140.162051,11.402439 L139.625288,12.0731707 L138.551764,12.2073171 L137.746621,12.2073171 L137.813716,11.2682927 L138.484669,11.1341463 L138.417573,10.6646341 L137.813716,10.2621951 L137.411144,9.99390244 L137.411144,9.65853659 L137.411144,9.65853659 Z M136.002143,11.3353659 L136.538905,10.4634146 L137.276954,10.2621951 L137.813716,10.4634146 L137.746621,11.0670732 L136.606001,11.8719512 L136.002143,11.8719512 L136.002143,11.3353659 L136.002143,11.3353659 Z M121.24118,14.6890244 L120.704418,14.7560976 L120.704418,14.3536585 L120.972799,14.0182927 L121.308276,14.2865854 L121.24118,14.6890244 Z M123.186944,13.9512195 L122.784372,13.9512195 L122.717277,14.3536585 L122.448895,14.554878 L121.979228,14.6219512 L121.979228,14.4207317 L121.777943,14.4207317 L121.777943,14.0182927 L122.583086,14.0182927 L122.717277,13.6158537 L123.052753,13.6158537 L123.388229,13.6829268 L123.186944,13.9512195 Z" id="Shape"></path>
            </g>
        </g>
    </g>
</svg>